<svg viewBox =" 0 0"   width="600" height="400" xmlns="http://www.w3.org/2000/svg" xmlns:svg="http://www.w3.org/2000/svg">
 <g class="layer" display="inline">
  <title>Layer 1</title>
  <text fill="#ff7f00" font-family="Sans-serif" font-size="24" font-weight="bold" id="svg_1" stroke="#0684d8" stroke-width="0" text-anchor="middle" transform="matrix(5.99098, 0, 0, 6.36992, -354.735, -1919.71)" x="111.87411" xml:space="preserve" y="361.362382">COOL</text>
  <ellipse cx="91.00001" cy="363.000013" fill="#ff7f00" id="svg_28" rx="18.07229" ry="18.07229" stroke="#000000" stroke-width="0"/>
  <text fill="#00bf00" font-family="Sans-serif" font-size="24" font-weight="bold" id="svg_8" stroke="#000000" stroke-width="0" text-anchor="middle" transform="rotate(-54.7228, 76.9709, 207.001) matrix(8.46206, 0, 0, 7.97243, -1261.77, -1459.11)" x="158.228442" xml:space="preserve" y="218.555942">1</text>
  <text fill="#007fff" font-family="Sans-serif" font-size="24" font-weight="bold" id="svg_9" stroke="#000000" stroke-width="0" text-anchor="middle" transform="rotate(-41.8413, 158.387, 123.818) matrix(11.1446, 0, 0, 8.03155, -1224.37, -685.051)" x="124.074764" xml:space="preserve" y="110.311528">3</text>
  <text fill="#ff5656" font-family="Sans-serif" font-size="24" font-weight="bold" id="svg_10" stroke="#000000" stroke-width="0" text-anchor="middle" transform="matrix(12.3978, 0, 0, 7.0508, -2654.28, -343.987)" x="238.671011" xml:space="preserve" y="68.928055">5</text>
  <text fill="#007fff" font-family="Helvetica" font-size="24" font-weight="bold" id="svg_11" stroke="#000000" stroke-width="0" text-anchor="middle" transform="rotate(45.9563, 440.126, 127.464) matrix(12.2584, 0, 0, 8.20352, -5099.33, -1236.2)" x="451.890658" xml:space="preserve" y="174.56881">3</text>
  <text fill="#00bf00" font-family="Sans-serif" font-size="24" font-weight="bold" id="svg_12" stroke="#000000" stroke-width="0" text-anchor="middle" transform="rotate(61.1677, 529.638, 200.887) matrix(8.08922, 0, 0, 8.06146, -3978.73, -1867.27)" x="557.267003" xml:space="preserve" y="266.043633">1</text>
 </g>
</svg>